<svg width="2352" height="438" viewBox="0 0 2352 438" fill="none" xmlns="http://www.w3.org/2000/svg">
<path d="M553.172 91.5205V333H511.473V152.702L451.658 311.979H409.617L349.803 152.702V333H308.104V91.5205H366.551L430.638 263.273L494.725 91.5205H553.172ZM679.466 336.418C662.376 336.418 647.166 332.43 633.836 324.455C620.506 316.366 610.195 305.542 602.903 291.984C595.612 278.312 591.966 263.387 591.966 247.209C591.966 231.145 595.612 216.39 602.903 202.946C610.195 189.388 620.506 178.622 633.836 170.646C647.166 162.671 662.376 158.684 679.466 158.684C696.556 158.684 711.766 162.671 725.096 170.646C738.426 178.622 748.737 189.388 756.028 202.946C763.32 216.39 766.966 231.145 766.966 247.209C766.966 263.387 763.32 278.312 756.028 291.984C748.737 305.542 738.426 316.366 725.096 324.455C711.766 332.43 696.556 336.418 679.466 336.418ZM679.466 300.529C689.492 300.529 697.809 298.137 704.417 293.352C711.025 288.452 715.867 282.015 718.943 274.04C722.02 265.951 723.558 257.007 723.558 247.209C723.558 231.942 719.912 219.41 712.62 209.611C705.442 199.699 694.391 194.743 679.466 194.743C669.44 194.743 661.123 197.136 654.515 201.921C647.907 206.592 643.064 212.858 639.988 220.72C636.912 228.581 635.374 237.411 635.374 247.209C635.374 257.007 636.912 265.951 639.988 274.04C643.064 282.015 647.907 288.452 654.515 293.352C661.123 298.137 669.44 300.529 679.466 300.529ZM800.804 162.272H842.503V182.097C848.997 174.235 856.688 168.368 865.574 164.494C874.461 160.62 883.462 158.684 892.576 158.684C906.704 158.684 918.439 162.045 927.781 168.767C937.124 175.489 943.96 184.318 948.289 195.256C952.732 206.079 954.954 217.814 954.954 230.461V333H913.255V235.759C913.255 224.252 910.407 214.966 904.71 207.902C899.013 200.725 890.981 197.136 880.613 197.136C868.536 197.136 859.137 200.611 852.415 207.561C845.807 214.396 842.503 225.049 842.503 239.519V333H800.804V162.272ZM1071.17 336.418C1052.37 336.418 1036.47 332.373 1023.48 324.284C1010.5 316.195 1000.75 305.485 994.261 292.155C987.881 278.711 984.69 264.071 984.69 248.234C984.69 232.74 987.767 218.156 993.919 204.484C1000.07 190.812 1009.41 179.761 1021.95 171.33C1034.59 162.899 1050.09 158.684 1068.43 158.684C1087.12 158.684 1102.38 163.013 1114.23 171.672C1126.08 180.217 1134.57 191.04 1139.7 204.143C1144.94 217.131 1147.56 230.689 1147.56 244.816C1147.56 248.234 1147.39 251.538 1147.04 254.729C1146.82 257.805 1146.47 259.969 1146.02 261.223H1028.78C1032.77 286.174 1047.01 298.649 1071.51 298.649C1079.6 298.649 1087 297.225 1093.72 294.377C1100.45 291.529 1106.71 286.914 1112.52 280.534L1141.23 305.656C1131.89 316.024 1121.47 323.771 1109.96 328.898C1098.45 333.911 1085.52 336.418 1071.17 336.418ZM1106.54 231.145C1106.54 227.043 1106.09 223.454 1105.17 220.378C1103.12 211.833 1098.74 205.282 1092.01 200.725C1085.41 196.053 1077.43 193.718 1068.09 193.718C1046.44 193.718 1033.34 206.193 1028.78 231.145H1106.54ZM1221.21 328.386L1154.39 162.272H1200.19L1243.26 280.876L1287.01 162.272H1332.81L1235.23 406.486H1189.77L1221.21 328.386Z" fill="#031C10"/>
<path d="M1362.89 91.5205H1438.6C1455.12 91.5205 1469.81 94.3688 1482.69 100.065C1495.56 105.648 1505.65 113.851 1512.94 124.675C1520.23 135.384 1523.88 148.145 1523.88 162.956C1523.88 177.653 1520.23 190.243 1512.94 200.725C1505.65 211.206 1495.56 219.182 1482.69 224.65C1469.81 230.119 1455.12 232.854 1438.6 232.854H1405.96V333H1362.89V91.5205ZM1438.6 192.351C1453.18 192.351 1463.83 189.901 1470.55 185.002C1477.39 180.103 1480.81 172.754 1480.81 162.956C1480.81 142.334 1466.74 132.023 1438.6 132.023H1405.96V192.351H1438.6ZM1588.47 336.418C1577.42 336.418 1568.71 333.684 1562.33 328.215C1555.95 322.632 1552.76 312.891 1552.76 298.991V91.5205H1594.46V287.541C1594.46 295.174 1599.01 298.991 1608.13 298.991C1611.32 298.991 1615.13 298.649 1619.58 297.966V333C1607.96 335.279 1597.59 336.418 1588.47 336.418ZM1713.91 158.684C1729.18 158.684 1742.34 161.646 1753.39 167.57C1764.56 173.495 1773.04 181.812 1778.86 192.521C1784.78 203.231 1787.74 215.536 1787.74 229.436V333H1753.39L1750.83 310.271C1745.59 318.701 1737.95 325.196 1727.93 329.753C1718.02 334.196 1707.88 336.418 1697.51 336.418C1685.77 336.418 1675.18 334.253 1665.72 329.924C1656.38 325.48 1648.97 319.043 1643.5 310.612C1638.15 302.181 1635.47 292.155 1635.47 280.534C1635.47 263.103 1641.57 250.513 1653.76 242.766C1666.06 235.018 1682.64 231.145 1703.49 231.145H1749.8C1749.46 222.372 1748.21 215.422 1746.04 210.295C1743.88 205.054 1740.29 201.237 1735.28 198.845C1730.26 196.338 1723.26 195.085 1714.26 195.085C1705.14 195.085 1697.17 197.364 1690.33 201.921C1683.61 206.364 1678.2 212.118 1674.09 219.182L1642.14 196.11C1650.91 184.147 1661.05 174.919 1672.56 168.425C1684.18 161.931 1697.96 158.684 1713.91 158.684ZM1705.88 301.213C1714.08 301.213 1721.38 299.447 1727.76 295.915C1734.14 292.383 1739.21 287.712 1742.97 281.901C1746.73 275.977 1749.06 269.54 1749.97 262.59V261.223H1705.88C1696.88 261.223 1689.99 263.216 1685.2 267.204C1680.53 271.192 1678.2 276.091 1678.2 281.901C1678.2 287.712 1680.53 292.383 1685.2 295.915C1689.99 299.447 1696.88 301.213 1705.88 301.213ZM1832.35 162.272H1874.05V182.097C1880.54 174.235 1888.23 168.368 1897.12 164.494C1906 160.62 1915 158.684 1924.12 158.684C1938.25 158.684 1949.98 162.045 1959.32 168.767C1968.67 175.489 1975.5 184.318 1979.83 195.256C1984.28 206.079 1986.5 217.814 1986.5 230.461V333H1944.8V235.759C1944.8 224.252 1941.95 214.966 1936.25 207.902C1930.56 200.725 1922.52 197.136 1912.16 197.136C1900.08 197.136 1890.68 200.611 1883.96 207.561C1877.35 214.396 1874.05 225.049 1874.05 239.519V333H1832.35V162.272ZM2102.71 336.418C2083.91 336.418 2068.02 332.373 2055.03 324.284C2042.04 316.195 2032.3 305.485 2025.8 292.155C2019.42 278.711 2016.23 264.071 2016.23 248.234C2016.23 232.74 2019.31 218.156 2025.46 204.484C2031.61 190.812 2040.96 179.761 2053.49 171.33C2066.14 162.899 2081.63 158.684 2099.97 158.684C2118.66 158.684 2133.93 163.013 2145.77 171.672C2157.62 180.217 2166.11 191.04 2171.24 204.143C2176.48 217.131 2179.1 230.689 2179.1 244.816C2179.1 248.234 2178.93 251.538 2178.59 254.729C2178.36 257.805 2178.02 259.969 2177.56 261.223H2060.33C2064.31 286.174 2078.55 298.649 2103.05 298.649C2111.14 298.649 2118.54 297.225 2125.27 294.377C2131.99 291.529 2138.25 286.914 2144.07 280.534L2172.78 305.656C2163.43 316.024 2153.01 323.771 2141.5 328.898C2129.99 333.911 2117.06 336.418 2102.71 336.418ZM2138.08 231.145C2138.08 227.043 2137.63 223.454 2136.72 220.378C2134.67 211.833 2130.28 205.282 2123.56 200.725C2116.95 196.053 2108.97 193.718 2099.63 193.718C2077.98 193.718 2064.88 206.193 2060.33 231.145H2138.08ZM2274.46 336.418C2263.41 336.418 2253.9 334.367 2245.92 330.266C2237.95 326.164 2231.79 320.354 2227.46 312.834C2223.25 305.201 2221.14 296.2 2221.14 285.832V197.136H2193.63V162.272H2221.82V119.89L2262.84 90.1533V162.272H2305.56V197.136H2262.84V278.483C2262.84 286.231 2264.49 291.7 2267.8 294.89C2271.21 298.08 2275.89 299.675 2281.81 299.675C2285.8 299.675 2289.9 299.105 2294.11 297.966C2298.33 296.713 2302.15 295.231 2305.56 293.522V331.291C2301.92 332.658 2297.25 333.854 2291.55 334.88C2285.97 335.905 2280.27 336.418 2274.46 336.418Z" fill="#33DC9F"/>
<path fill-rule="evenodd" clip-rule="evenodd" d="M154.483 92H191.763V332.997H154.483V92ZM61.28 159.477H24V332.995H61.28V159.477ZM126.516 207.682H89.2364V333H126.516V207.682ZM256.999 178.761H219.719V332.999H256.999V178.761Z" fill="#33DC9F"/>
</svg>
